# xmcd
#
# Track frame offsets:
#	150
#	39345
#	96485
#	139872
#	181272
#	227580
#	258180
#
# Disc length: 4475 seconds
#
# Revision: 1
# Processed by: cddbd v1.5.1PL0 Copyright (c) Steve Scherf et al.
# Submitted via: CDex 1.50Beta5
#
DISCID=55117907
DTITLE=三千世界の鴉を殺し - 三千世界の鴉を殺し1
DYEAR=1900
DGENRE=Books
TTITLE0=英雄
TTITLE1=蓬莱人
TTITLE2=O2
TTITLE3=AFS
TTITLE4=マッドとマッチョ
TTITLE5=医者とロマン
TTITLE6=三千世界
EXTD=
EXTT0=
EXTT1=
EXTT2=
EXTT3=
EXTT4=
EXTT5=
EXTT6=
PLAYORDER=
